<?xml version="1.0" encoding="UTF-8" standalone="no"?><!DOCTYPE svg PUBLIC "-//W3C//DTD SVG 1.1//EN" "http://www.w3.org/Graphics/SVG/1.1/DTD/svg11.dtd"><!-- Generated by graphviz version 2.40.1 (20161225.0304)
 --><!-- Title: G Pages: 1 --><svg xmlns="http://www.w3.org/2000/svg" xmlns:xlink="http://www.w3.org/1999/xlink" width="175pt" height="260pt" viewBox="0.00 0.00 175.00 260.00">
<g id="graph0" class="graph" transform="scale(1 1) rotate(0) translate(4 256)">
<title>G</title>
<polygon fill="#ffffff" stroke="transparent" points="-4,4 -4,-256 171,-256 171,4 -4,4"/>
<!-- 5 -->
<g id="node1" class="node">
<title>5</title>
<ellipse fill="none" stroke="#000000" cx="54" cy="-234" rx="27" ry="18"/>
<text text-anchor="middle" x="54" y="-229.8" font-family="Times,serif" font-size="14.00" fill="#000000">5</text>
</g>
<!-- 0 -->
<g id="node2" class="node">
<title>0</title>
<ellipse fill="none" stroke="#000000" cx="99" cy="-162" rx="27" ry="18"/>
<text text-anchor="middle" x="99" y="-157.8" font-family="Times,serif" font-size="14.00" fill="#000000">0</text>
</g>
<!-- 5&#45;&gt;0 -->
<g id="edge1" class="edge">
<title>5-&gt;0</title>
<path fill="none" stroke="#000000" d="M64.437,-217.3008C69.9235,-208.5224 76.7686,-197.5703 82.9163,-187.7339"/>
<polygon fill="#000000" stroke="#000000" points="85.9751,-189.4436 88.3071,-179.1086 80.0391,-185.7336 85.9751,-189.4436"/>
</g>
<!-- 2 -->
<g id="node4" class="node">
<title>2</title>
<ellipse fill="none" stroke="#000000" cx="27" cy="-162" rx="27" ry="18"/>
<text text-anchor="middle" x="27" y="-157.8" font-family="Times,serif" font-size="14.00" fill="#000000">2</text>
</g>
<!-- 5&#45;&gt;2 -->
<g id="edge3" class="edge">
<title>5-&gt;2</title>
<path fill="none" stroke="#000000" d="M47.3258,-216.2022C44.2524,-208.0064 40.5384,-198.1024 37.1305,-189.0145"/>
<polygon fill="#000000" stroke="#000000" points="40.3858,-187.7274 33.5974,-179.593 33.8315,-190.1853 40.3858,-187.7274"/>
</g>
<!-- 4 -->
<g id="node3" class="node">
<title>4</title>
<ellipse fill="none" stroke="#000000" cx="140" cy="-234" rx="27" ry="18"/>
<text text-anchor="middle" x="140" y="-229.8" font-family="Times,serif" font-size="14.00" fill="#000000">4</text>
</g>
<!-- 4&#45;&gt;0 -->
<g id="edge2" class="edge">
<title>4-&gt;0</title>
<path fill="none" stroke="#000000" d="M130.2836,-216.937C125.3307,-208.2393 119.2039,-197.4799 113.6887,-187.7948"/>
<polygon fill="#000000" stroke="#000000" points="116.6366,-185.8984 108.6467,-178.9405 110.5537,-189.3623 116.6366,-185.8984"/>
</g>
<!-- 1 -->
<g id="node6" class="node">
<title>1</title>
<ellipse fill="none" stroke="#000000" cx="90" cy="-18" rx="27" ry="18"/>
<text text-anchor="middle" x="90" y="-13.8" font-family="Times,serif" font-size="14.00" fill="#000000">1</text>
</g>
<!-- 4&#45;&gt;1 -->
<g id="edge6" class="edge">
<title>4-&gt;1</title>
<path fill="none" stroke="#000000" d="M140.5089,-215.8776C140.6703,-197.5636 139.9563,-168.5431 135,-144 127.856,-108.6233 112.8073,-69.7748 102.0808,-44.7004"/>
<polygon fill="#000000" stroke="#000000" points="105.2684,-43.254 98.0662,-35.4836 98.8507,-46.0493 105.2684,-43.254"/>
</g>
<!-- 3 -->
<g id="node5" class="node">
<title>3</title>
<ellipse fill="none" stroke="#000000" cx="63" cy="-90" rx="27" ry="18"/>
<text text-anchor="middle" x="63" y="-85.8" font-family="Times,serif" font-size="14.00" fill="#000000">3</text>
</g>
<!-- 2&#45;&gt;3 -->
<g id="edge4" class="edge">
<title>2-&gt;3</title>
<path fill="none" stroke="#000000" d="M35.7146,-144.5708C39.9597,-136.0807 45.1536,-125.6929 49.8663,-116.2674"/>
<polygon fill="#000000" stroke="#000000" points="53.024,-117.7782 54.3657,-107.2687 46.763,-114.6477 53.024,-117.7782"/>
</g>
<!-- 3&#45;&gt;1 -->
<g id="edge5" class="edge">
<title>3-&gt;1</title>
<path fill="none" stroke="#000000" d="M69.6742,-72.2022C72.7476,-64.0064 76.4616,-54.1024 79.8695,-45.0145"/>
<polygon fill="#000000" stroke="#000000" points="83.1685,-46.1853 83.4026,-35.593 76.6142,-43.7274 83.1685,-46.1853"/>
</g>
</g>
</svg>