<?xml version="1.0" encoding="UTF-8" standalone="no"?><!DOCTYPE svg PUBLIC "-//W3C//DTD SVG 1.1//EN" "http://www.w3.org/Graphics/SVG/1.1/DTD/svg11.dtd"><!-- Generated by graphviz version 2.40.1 (20161225.0304)
 --><!-- Title: G Pages: 1 --><svg xmlns="http://www.w3.org/2000/svg" xmlns:xlink="http://www.w3.org/1999/xlink" width="335pt" height="234pt" viewBox="0.00 0.00 335.07 233.89">
<g id="graph0" class="graph" transform="scale(1 1) rotate(0) translate(4 229.8913)">
<title>G</title>
<polygon fill="#ffffff" stroke="transparent" points="-4,4 -4,-229.8913 331.0672,-229.8913 331.0672,4 -4,4"/>
<!-- 0 -->
<g id="node1" class="node">
<title>0</title>
<ellipse fill="none" stroke="#000000" cx="27" cy="-111.7386" rx="27" ry="18"/>
<text text-anchor="middle" x="27" y="-107.5386" font-family="Times,serif" font-size="14.00" fill="#000000">0</text>
</g>
<!-- 1 -->
<g id="node2" class="node">
<title>1</title>
<ellipse fill="none" stroke="#000000" cx="249.1243" cy="-108.8994" rx="27" ry="18"/>
<text text-anchor="middle" x="249.1243" y="-104.6994" font-family="Times,serif" font-size="14.00" fill="#000000">1</text>
</g>
<!-- 0&#45;&#45;1 -->
<g id="edge1" class="edge">
<title>0--1</title>
<path fill="none" stroke="#000000" d="M54.2368,-111.3904C96.9843,-110.844 179.3424,-109.7913 222.0125,-109.2459"/>
<text text-anchor="middle" x="134.6246" y="-114.5182" font-family="Times,serif" font-size="14.00" fill="#000000">2</text>
</g>
<!-- 3 -->
<g id="node3" class="node">
<title>3</title>
<ellipse fill="none" stroke="#000000" cx="250.3896" cy="-207.8913" rx="27" ry="18"/>
<text text-anchor="middle" x="250.3896" y="-203.6913" font-family="Times,serif" font-size="14.00" fill="#000000">3</text>
</g>
<!-- 0&#45;&#45;3 -->
<g id="edge2" class="edge">
<title>0--3</title>
<path fill="none" stroke="#000000" d="M50.0652,-121.6665C92.9834,-140.1396 184.6268,-179.5853 227.4498,-198.0174"/>
<text text-anchor="middle" x="135.2575" y="-164.0419" font-family="Times,serif" font-size="14.00" fill="#000000">6</text>
</g>
<!-- 2 -->
<g id="node4" class="node">
<title>2</title>
<ellipse fill="none" stroke="#000000" cx="300.0672" cy="-18" rx="27" ry="18"/>
<text text-anchor="middle" x="300.0672" y="-13.8" font-family="Times,serif" font-size="14.00" fill="#000000">2</text>
</g>
<!-- 1&#45;&#45;2 -->
<g id="edge3" class="edge">
<title>1--2</title>
<path fill="none" stroke="#000000" d="M258.7063,-91.8019C267.8141,-75.5505 281.4347,-51.2468 290.5282,-35.0208"/>
<text text-anchor="middle" x="271.1172" y="-67.6114" font-family="Times,serif" font-size="14.00" fill="#000000">3</text>
</g>
<!-- 4 -->
<g id="node5" class="node">
<title>4</title>
<ellipse fill="none" stroke="#000000" cx="195.8746" cy="-19.3318" rx="27" ry="18"/>
<text text-anchor="middle" x="195.8746" y="-15.1318" font-family="Times,serif" font-size="14.00" fill="#000000">4</text>
</g>
<!-- 1&#45;&#45;4 -->
<g id="edge4" class="edge">
<title>1--4</title>
<path fill="none" stroke="#000000" d="M239.1084,-92.0524C229.5882,-76.0391 215.3509,-52.0915 205.8455,-36.1032"/>
<text text-anchor="middle" x="218.977" y="-68.2778" font-family="Times,serif" font-size="14.00" fill="#000000">5</text>
</g>
<!-- 3&#45;&#45;1 -->
<g id="edge6" class="edge">
<title>3--1</title>
<path fill="none" stroke="#000000" d="M250.1575,-189.7346C249.9292,-171.8733 249.5827,-144.7624 249.3549,-126.9409"/>
<text text-anchor="middle" x="246.2562" y="-162.5378" font-family="Times,serif" font-size="14.00" fill="#000000">8</text>
</g>
<!-- 2&#45;&#45;4 -->
<g id="edge5" class="edge">
<title>2--4</title>
<path fill="none" stroke="#000000" d="M272.9638,-18.3464C257.6485,-18.5422 238.5565,-18.7862 223.2042,-18.9825"/>
<text text-anchor="middle" x="244.584" y="-22.8645" font-family="Times,serif" font-size="14.00" fill="#000000">7</text>
</g>
</g>
</svg>