<?xml version="1.0" encoding="UTF-8" standalone="no"?><!DOCTYPE svg PUBLIC "-//W3C//DTD SVG 1.1//EN" "http://www.w3.org/Graphics/SVG/1.1/DTD/svg11.dtd"><!-- Generated by graphviz version 2.40.1 (20161225.0304)
 --><!-- Title: G Pages: 1 --><svg xmlns="http://www.w3.org/2000/svg" xmlns:xlink="http://www.w3.org/1999/xlink" width="190pt" height="246pt" viewBox="0.00 0.00 189.82 246.01">
<g id="graph0" class="graph" transform="scale(1 1) rotate(0) translate(4 242.0101)">
<title>G</title>
<polygon fill="#ffffff" stroke="transparent" points="-4,4 -4,-242.0101 185.8164,-242.0101 185.8164,4 -4,4"/>
<!-- 0 -->
<g id="node1" class="node">
<title>0</title>
<ellipse fill="none" stroke="#000000" cx="66.905" cy="-90.3269" rx="27" ry="18"/>
<text text-anchor="middle" x="66.905" y="-86.1269" font-family="Times,serif" font-size="14.00" fill="#000000">0</text>
</g>
<!-- 1 -->
<g id="node2" class="node">
<title>1</title>
<ellipse fill="none" stroke="#000000" cx="82.4799" cy="-165.5364" rx="27" ry="18"/>
<text text-anchor="middle" x="82.4799" y="-161.3364" font-family="Times,serif" font-size="14.00" fill="#000000">1</text>
</g>
<!-- 0&#45;&#45;1 -->
<g id="edge1" class="edge">
<title>0--1</title>
<path fill="none" stroke="#000000" d="M70.6753,-108.533C73.124,-120.3578 76.3025,-135.7066 78.7444,-147.4979"/>
<text text-anchor="middle" x="71.2098" y="-132.2155" font-family="Times,serif" font-size="14.00" fill="#000000">2</text>
</g>
<!-- 3 -->
<g id="node3" class="node">
<title>3</title>
<ellipse fill="none" stroke="#000000" cx="55.5621" cy="-18" rx="27" ry="18"/>
<text text-anchor="middle" x="55.5621" y="-13.8" font-family="Times,serif" font-size="14.00" fill="#000000">3</text>
</g>
<!-- 0&#45;&#45;3 -->
<g id="edge2" class="edge">
<title>0--3</title>
<path fill="none" stroke="#000000" d="M64.0427,-72.0758C62.3101,-61.0279 60.1095,-46.996 58.3842,-35.9947"/>
<text text-anchor="middle" x="57.7135" y="-58.2353" font-family="Times,serif" font-size="14.00" fill="#000000">6</text>
</g>
<!-- 2 -->
<g id="node4" class="node">
<title>2</title>
<ellipse fill="none" stroke="#000000" cx="27" cy="-220.0101" rx="27" ry="18"/>
<text text-anchor="middle" x="27" y="-215.8101" font-family="Times,serif" font-size="14.00" fill="#000000">2</text>
</g>
<!-- 1&#45;&#45;2 -->
<g id="edge3" class="edge">
<title>1--2</title>
<path fill="none" stroke="#000000" d="M67.0256,-180.7103C59.3306,-188.2658 50.055,-197.3732 42.3714,-204.9175"/>
<text text-anchor="middle" x="51.1985" y="-180.2139" font-family="Times,serif" font-size="14.00" fill="#000000">3</text>
</g>
<!-- 4 -->
<g id="node5" class="node">
<title>4</title>
<ellipse fill="none" stroke="#000000" cx="154.8164" cy="-194.1264" rx="27" ry="18"/>
<text text-anchor="middle" x="154.8164" y="-189.9264" font-family="Times,serif" font-size="14.00" fill="#000000">4</text>
</g>
<!-- 1&#45;&#45;4 -->
<g id="edge4" class="edge">
<title>1--4</title>
<path fill="none" stroke="#000000" d="M105.7658,-174.7398C114.026,-178.0045 123.3175,-181.6769 131.5741,-184.9402"/>
<text text-anchor="middle" x="115.1699" y="-184.04" font-family="Times,serif" font-size="14.00" fill="#000000">5</text>
</g>
</g>
</svg>